<svg width="32" height="36" viewBox="0 0 32 36" fill="none" xmlns="http://www.w3.org/2000/svg">
<path d="M9.4025 33C8.63227 33 7.97314 32.7065 7.42511 32.1195C6.87615 31.5315 6.60167 30.825 6.60167 30C6.60167 29.175 6.87615 28.4685 7.42511 27.8805C7.97314 27.2935 8.63227 27 9.4025 27C10.1727 27 10.8319 27.2935 11.3799 27.8805C11.9289 28.4685 12.2033 29.175 12.2033 30C12.2033 30.825 11.9289 31.5315 11.3799 32.1195C10.8319 32.7065 10.1727 33 9.4025 33ZM23.4067 33C22.6364 33 21.9773 32.7065 21.4293 32.1195C20.8803 31.5315 20.6058 30.825 20.6058 30C20.6058 29.175 20.8803 28.4685 21.4293 27.8805C21.9773 27.2935 22.6364 27 23.4067 27C24.1769 27 24.8365 27.2935 25.3855 27.8805C25.9335 28.4685 26.2075 29.175 26.2075 30C26.2075 30.825 25.9335 31.5315 25.3855 32.1195C24.8365 32.7065 24.1769 33 23.4067 33ZM8.21215 9L11.5731 16.5H21.3761L25.2272 9H8.21215ZM9.4025 25.5C8.35219 25.5 7.55862 25.006 7.02179 24.018C6.48497 23.031 6.46163 22.05 6.95177 21.075L8.84233 17.4L3.80083 6H2.36541C1.96862 6 1.64186 5.856 1.38511 5.568C1.12837 5.281 1 4.925 1 4.5C1 4.075 1.13444 3.7185 1.40332 3.4305C1.67127 3.1435 2.00363 3 2.40042 3H4.67609C4.93284 3 5.17791 3.075 5.41131 3.225C5.64472 3.375 5.81977 3.5875 5.93647 3.8625L6.88175 6H27.5379C28.1681 6 28.5999 6.25 28.8333 6.75C29.0667 7.25 29.055 7.775 28.7983 8.325L23.8268 17.925C23.5701 18.425 23.2316 18.8125 22.8115 19.0875C22.3914 19.3625 21.9129 19.5 21.3761 19.5H10.943L9.4025 22.5H24.8421C25.2389 22.5 25.5656 22.6435 25.8224 22.9305C26.0791 23.2185 26.2075 23.575 26.2075 24C26.2075 24.425 26.0731 24.781 25.8042 25.068C25.5362 25.356 25.2039 25.5 24.8071 25.5H9.4025ZM11.5731 16.5H21.3761H11.5731Z" fill="black"/>
</svg>
