<svg width="28" height="28" viewBox="0 0 28 28" fill="none" xmlns="http://www.w3.org/2000/svg">
<path d="M14 27.3334C6.63599 27.3334 0.666656 21.3641 0.666656 14.0001C0.666656 6.63608 6.63599 0.666748 14 0.666748C21.364 0.666748 27.3333 6.63608 27.3333 14.0001C27.3333 21.3641 21.364 27.3334 14 27.3334ZM9.85332 15.5601L9.87066 15.5507L11.0307 19.3774C11.18 19.7921 11.3853 19.8667 11.6347 19.8321C11.8853 19.7987 12.0173 19.6641 12.1813 19.5067L13.7653 17.9761L17.1653 20.4934C17.7867 20.8361 18.2333 20.6587 18.388 19.9174L20.5973 9.48808C20.8413 8.51741 20.4147 8.12808 19.6613 8.43741L6.68399 13.4507C5.79866 13.8054 5.80399 14.3014 6.52399 14.5214L9.85332 15.5614V15.5601Z" fill="#1B1917"/>
</svg>
