<svg width="28" height="28" viewBox="0 0 28 28" fill="none" xmlns="http://www.w3.org/2000/svg">
<path d="M0.671977 27.3334L2.47464 20.7094C1.28683 18.6732 0.662772 16.3574 0.666644 14.0001C0.666644 6.63608 6.63598 0.666748 14 0.666748C21.364 0.666748 27.3333 6.63608 27.3333 14.0001C27.3333 21.3641 21.364 27.3334 14 27.3334C11.6437 27.3372 9.32885 26.7136 7.29331 25.5267L0.671977 27.3334ZM9.18798 7.74408C9.01579 7.75477 8.84754 7.80012 8.69331 7.87741C8.54867 7.95932 8.41664 8.06171 8.30131 8.18141C8.14131 8.33208 8.05064 8.46275 7.95331 8.58941C7.46053 9.23074 7.19546 10.018 7.19998 10.8267C7.20264 11.4801 7.37331 12.1161 7.63998 12.7107C8.18531 13.9134 9.08264 15.1867 10.268 16.3667C10.5533 16.6507 10.832 16.9361 11.132 17.2014C12.6032 18.4967 14.3563 19.4308 16.252 19.9294L17.0106 20.0454C17.2573 20.0587 17.504 20.0401 17.752 20.0281C18.1403 20.008 18.5195 19.9029 18.8626 19.7201C19.0372 19.6301 19.2076 19.5323 19.3733 19.4267C19.3733 19.4267 19.4306 19.3894 19.54 19.3067C19.72 19.1734 19.8306 19.0787 19.98 18.9227C20.0906 18.8081 20.1866 18.6734 20.26 18.5201C20.364 18.3027 20.468 17.8881 20.5106 17.5427C20.5426 17.2787 20.5333 17.1347 20.5293 17.0454C20.524 16.9027 20.4053 16.7547 20.276 16.6921L19.5 16.3441C19.5 16.3441 18.34 15.8387 17.632 15.5161C17.5573 15.4835 17.4773 15.465 17.396 15.4614C17.3048 15.452 17.2126 15.4623 17.1256 15.4915C17.0387 15.5207 16.959 15.5682 16.892 15.6307V15.6281C16.8853 15.6281 16.796 15.7041 15.832 16.8721C15.7766 16.9464 15.7004 17.0026 15.613 17.0335C15.5257 17.0644 15.4311 17.0685 15.3413 17.0454C15.2544 17.0222 15.1693 16.9928 15.0866 16.9574C14.9213 16.8881 14.864 16.8614 14.7506 16.8121L14.744 16.8094C13.9812 16.4764 13.2749 16.0265 12.6506 15.4761C12.4826 15.3294 12.3266 15.1694 12.1666 15.0147C11.6421 14.5124 11.1849 13.9441 10.8066 13.3241L10.728 13.1974C10.6715 13.1123 10.6258 13.0205 10.592 12.9241C10.5413 12.7281 10.6733 12.5707 10.6733 12.5707C10.6733 12.5707 10.9973 12.2161 11.148 12.0241C11.2734 11.8645 11.3905 11.6985 11.4986 11.5267C11.656 11.2734 11.7053 11.0134 11.6226 10.8121C11.2493 9.90008 10.8626 8.99208 10.4653 8.09075C10.3866 7.91208 10.1533 7.78408 9.94131 7.75875C9.86931 7.75075 9.79731 7.74275 9.72531 7.73741C9.54625 7.72852 9.36682 7.7303 9.18798 7.74275V7.74408Z" fill="#1B1917"/>
</svg>
