<svg width="37" height="37" viewBox="0 0 37 37" fill="none" xmlns="http://www.w3.org/2000/svg">
<path d="M18.5 32.0857C18.3527 32.0834 18.2085 32.0436 18.0809 31.9701C17.9219 31.8978 14.3375 29.8599 10.6953 26.5935C5.70899 22.0986 3.17969 17.6326 3.17969 13.2967C3.17838 11.5027 3.75261 9.75565 4.81796 8.3123C5.88332 6.86895 7.38361 5.80543 9.0983 5.27808C10.813 4.75074 12.6516 4.78737 14.3439 5.38261C16.0363 5.97785 17.493 7.10029 18.5 8.58493C19.507 7.10029 20.9637 5.97785 22.6561 5.38261C24.3484 4.78737 26.187 4.75074 27.9017 5.27808C29.6164 5.80543 31.1167 6.86895 32.182 8.3123C33.2474 9.75565 33.8216 11.5027 33.8203 13.2967C33.8203 17.6326 31.291 22.0986 26.3047 26.5935C22.6625 29.8599 19.0781 31.8978 18.9191 31.9701C18.7915 32.0436 18.6473 32.0834 18.5 32.0857ZM11.5625 6.64822C9.79923 6.64822 8.10817 7.34867 6.86135 8.5955C5.61452 9.84232 4.91406 11.5334 4.91406 13.2967C4.91406 21.5783 16.1586 28.8049 18.5 30.2068C20.8414 28.8049 32.0859 21.5783 32.0859 13.2967C32.0893 11.7572 31.5583 10.2643 30.5836 9.07271C29.6089 7.88112 28.2509 7.0647 26.7414 6.76279C25.2318 6.46088 23.6643 6.69218 22.3063 7.41723C20.9482 8.14228 19.8839 9.31613 19.2949 10.7385C19.2327 10.8987 19.1235 11.0364 18.9817 11.1335C18.8398 11.2306 18.6719 11.2825 18.5 11.2825C18.3281 11.2825 18.1602 11.2306 18.0184 11.1335C17.8765 11.0364 17.7673 10.8987 17.7051 10.7385C17.1997 9.52618 16.3466 8.49076 15.2534 7.76281C14.1602 7.03487 12.8759 6.64703 11.5625 6.64822Z" fill="black"/>
</svg>
